<svg xmlns="http://www.w3.org/2000/svg" viewBox="0 0 1000 600"><title>OBH-Revamp</title><path d="M114.8,181.373h0a5.157,5.157,0,0,1,7.292,0l4.165,4.165a5.157,5.157,0,0,0,7.292,0l4.165-4.165a5.157,5.157,0,0,1,7.292,0l.057.057a5.157,5.157,0,0,1,0,7.292l-4.165,4.165a5.157,5.157,0,0,0,0,7.292l4.165,4.165a5.157,5.157,0,0,1,0,7.292h0a5.157,5.157,0,0,1-7.292,0l-4.165-4.165a5.157,5.157,0,0,0-7.292,0l-4.221,4.221a5.157,5.157,0,0,1-7.292,0l-.057-.057a5.157,5.157,0,0,1,0-7.292l4.221-4.221a5.157,5.157,0,0,0,0-7.292l-4.165-4.165A5.157,5.157,0,0,1,114.8,181.373Z" style="fill:#00aeef"/><path d="M83.971,100.156h0a3.711,3.711,0,0,1,0-5.248l3-3a3.711,3.711,0,0,0,0-5.248l-3-3a3.711,3.711,0,0,1,0-5.248l.041-.041a3.711,3.711,0,0,1,5.248,0l3,3a3.711,3.711,0,0,0,5.248,0l3-3a3.711,3.711,0,0,1,5.248,0h0a3.711,3.711,0,0,1,0,5.248l-3,3a3.711,3.711,0,0,0,0,5.248l3.037,3.037a3.711,3.711,0,0,1,0,5.248l-.041.041a3.711,3.711,0,0,1-5.248,0l-3.037-3.037a3.711,3.711,0,0,0-5.248,0l-3,3A3.711,3.711,0,0,1,83.971,100.156Z" style="fill:#fff200"/><circle cx="195.146" cy="150.85" r="13.568" style="fill:none;stroke:#fff200;stroke-miterlimit:10;stroke-width:6px"/><circle cx="142.328" cy="126.459" r="4.25" style="fill:#ed1c24"/><circle cx="185.646" cy="73.887" r="4.25" style="fill:#00aeef"/><path d="M715.694,88.79h0a4.991,4.991,0,0,1,7.058,0l4.031,4.031a4.991,4.991,0,0,0,7.058,0l4.031-4.031a4.991,4.991,0,0,1,7.058,0l.055.055a4.991,4.991,0,0,1,0,7.058l-4.031,4.031a4.991,4.991,0,0,0,0,7.058l4.031,4.031a4.991,4.991,0,0,1,0,7.058h0a4.991,4.991,0,0,1-7.058,0L733.9,114.05a4.991,4.991,0,0,0-7.058,0l-4.085,4.085a4.991,4.991,0,0,1-7.058,0l-.055-.055a4.991,4.991,0,0,1,0-7.058l4.085-4.085a4.991,4.991,0,0,0,0-7.058l-4.031-4.031A4.991,4.991,0,0,1,715.694,88.79Z" style="fill:#ed1c24"/><path d="M798.3,75.832h0a2.809,2.809,0,0,1,3.973,0l2.269,2.269a2.809,2.809,0,0,0,3.973,0l2.269-2.269a2.809,2.809,0,0,1,3.973,0l.031.031a2.809,2.809,0,0,1,0,3.973L812.518,82.1a2.809,2.809,0,0,0,0,3.973l2.269,2.269a2.809,2.809,0,0,1,0,3.973h0a2.809,2.809,0,0,1-3.973,0l-2.269-2.269a2.809,2.809,0,0,0-3.973,0l-2.3,2.3a2.809,2.809,0,0,1-3.973,0l-.031-.031a2.809,2.809,0,0,1,0-3.973l2.3-2.3a2.809,2.809,0,0,0,0-3.973L798.3,79.8A2.809,2.809,0,0,1,798.3,75.832Z" style="fill:#fff200"/><circle cx="892.114" cy="181.198" r="15.485" style="fill:none;stroke:#00aeef;stroke-miterlimit:10;stroke-width:6px"/><circle cx="831.647" cy="215.382" r="6.25" style="fill:#fff200"/><circle cx="782.108" cy="136.513" r="3.628" style="fill:#00aeef"/><circle cx="872.487" cy="107.966" r="9.539" style="fill:none;stroke:#ed1c24;stroke-miterlimit:10;stroke-width:6px"/><circle cx="824.261" cy="162.985" r="3.628" style="fill:#ed1c24"/><path d="M225.639,107.821h0a2.179,2.179,0,0,1,0-3.081l1.76-1.76a2.179,2.179,0,0,0,0-3.081l-1.76-1.76a2.179,2.179,0,0,1,0-3.081l.024-.024a2.179,2.179,0,0,1,3.081,0l1.76,1.76a2.179,2.179,0,0,0,3.081,0l1.76-1.76a2.179,2.179,0,0,1,3.081,0h0a2.179,2.179,0,0,1,0,3.081l-1.76,1.76a2.179,2.179,0,0,0,0,3.081l1.783,1.783a2.179,2.179,0,0,1,0,3.081l-.024.024a2.179,2.179,0,0,1-3.081,0l-1.783-1.783a2.179,2.179,0,0,0-3.081,0l-1.76,1.76A2.179,2.179,0,0,1,225.639,107.821Z" style="fill:#ed1c24"/><rect x="150" y="294" width="700" height="220" style="fill:#8b0304"/><line x1="850" y1="430.75" x2="850" y2="467" style="fill:none;stroke:#231f20;stroke-linecap:round;stroke-linejoin:round;stroke-width:12px"/><path d="M150,330V306a12.035,12.035,0,0,1,12-12H838a12.035,12.035,0,0,1,12,12v96" style="fill:none;stroke:#231f20;stroke-linecap:round;stroke-linejoin:round;stroke-width:12px"/><line x1="150" y1="354" x2="150" y2="350" style="fill:none;stroke:#231f20;stroke-linecap:round;stroke-linejoin:round;stroke-width:12px"/><path d="M850,494v8a12.035,12.035,0,0,1-12,12H162a12.035,12.035,0,0,1-12-12V372.5" style="fill:none;stroke:#231f20;stroke-linecap:round;stroke-linejoin:round;stroke-width:12px"/><line x1="790" y1="514" x2="784.625" y2="514" style="fill:#fff;stroke:#231f20;stroke-miterlimit:10"/><path d="M854.122,284.948C858.455,289.927,856.6,294,850,294H150c-6.6,0-8.455-4.073-4.122-9.052l78.243-89.9C228.455,190.073,237.4,186,244,186H756c6.6,0,15.545,4.073,19.878,9.052Z" style="fill:#3a393b"/><path d="M667.5,186H756c6.6,0,15.545,4.073,19.878,9.052l78.243,89.9C858.455,289.927,856.6,294,850,294H150c-6.6,0-8.455-4.073-4.122-9.052l78.243-89.9C228.455,190.073,237.4,186,244,186H586.224" style="fill:none;stroke:#231f20;stroke-linecap:round;stroke-linejoin:round;stroke-width:12px"/><line x1="615" y1="186" x2="645.111" y2="186" style="fill:none;stroke:#231f20;stroke-linecap:round;stroke-linejoin:round;stroke-width:12px"/><path d="M372.5,50.969A4.663,4.663,0,0,0,368,47H322a3.451,3.451,0,0,0-3.5,3.969l1.008,8.062A4.663,4.663,0,0,0,324,63h0a4.012,4.012,0,0,1,4,4h0a4.012,4.012,0,0,0,4,4h28a4.012,4.012,0,0,0,4-4h0a4.012,4.012,0,0,1,4-4h2a3.451,3.451,0,0,0,3.5-3.969Z" style="fill:#231f20"/><path d="M382.221,98.426l-1.134-12.476A13.43,13.43,0,0,0,368,74H322a12.715,12.715,0,0,0-12.545,11.988l-4.685,103.08-1.09,23.975-1.272,27.978L301.318,265l-.773,17.016C300.245,288.606,300,299.4,300,306V502a12.035,12.035,0,0,0,12,12H608a12.035,12.035,0,0,0,12-12V306c0-6.6-3.818-15.818-8.485-20.485l-93.03-93.028a12.035,12.035,0,0,0-16.971,0l-93.028,93.029c-4.667,4.667-8.974,3.107-9.572-3.465L387.76,159.357" style="fill:#94070a"/><path d="M301.863,253.009l-1.318,29C300.245,288.606,300,299.4,300,306V502a12.035,12.035,0,0,0,12,12H608a12.035,12.035,0,0,0,12-12V306c0-6.6-3.818-15.818-8.485-20.485l-93.03-93.028a12.035,12.035,0,0,0-16.971,0l-93.028,93.029c-4.667,4.667-8.974,3.107-9.572-3.465L387.76,159.357" style="fill:none;stroke:#231f20;stroke-linecap:round;stroke-linejoin:round;stroke-width:12px"/><path d="M382.221,98.426l-1.134-12.476A13.43,13.43,0,0,0,368,74H322a12.715,12.715,0,0,0-12.545,11.988l-5.23,115.068" style="fill:none;stroke:#231f20;stroke-linecap:round;stroke-linejoin:round;stroke-width:12px"/><line x1="385.753" y1="137.283" x2="384.769" y2="126.459" style="fill:#be1e2d"/><line x1="385.753" y1="137.283" x2="384.769" y2="126.459" style="fill:none;stroke:#231f20;stroke-linecap:round;stroke-linejoin:round;stroke-width:12px"/><path d="M470,492V344a12.013,12.013,0,0,1,12-12h56a12.013,12.013,0,0,1,12,12V492Z" style="fill:#333132"/><path d="M538,336a8,8,0,0,1,8,8V488H474V344a8,8,0,0,1,8-8h56m0-8H482a16.018,16.018,0,0,0-16,16V496h88V344a16.018,16.018,0,0,0-16-16Z" style="fill:#231f20"/><rect x="488" y="350" width="44" height="124" rx="4" ry="4" style="fill:#fff;opacity:0.75"/><path d="M448,498.857c0-3.787,1.791-6.857,4-6.857H568c2.209,0,4,3.07,4,6.857V516H448Z" style="fill:#3a393b;stroke:#231f20;stroke-miterlimit:10;stroke-width:8px"/><rect x="661" y="330" width="138" height="128" rx="8" ry="8" style="fill:#333132"/><rect x="736" y="339" width="52" height="56" rx="4" ry="4" style="fill:#fff;opacity:0.75"/><rect x="736" y="401" width="50" height="48" rx="4" ry="4" style="fill:#fff;opacity:0.75"/><rect x="672" y="339" width="52" height="56" rx="4" ry="4" transform="translate(1396 734) rotate(-180)" style="fill:#fff;opacity:0.75"/><rect x="674" y="401" width="50" height="48" rx="4" ry="4" transform="translate(1398 850) rotate(-180)" style="fill:#fff;opacity:0.75"/><rect x="181" y="330" width="88" height="128" rx="8" ry="8" style="fill:#333132"/><rect x="190.999" y="339" width="68.002" height="56" rx="4" ry="4" style="fill:#fff;opacity:0.75"/><rect x="193" y="401" width="64" height="48" rx="4" ry="4" style="fill:#fff;opacity:0.75"/><rect x="571.024" y="394" width="28" height="36" rx="6" ry="6" style="fill:#333132"/><path d="M284.95,421.109a10.926,10.926,0,0,1-7.778-3.222l-1.061-1.061a11.013,11.013,0,0,1,0-15.557L502.222,175.161a11,11,0,0,1,15.557,0l131.11,131.109a11,11,0,0,1,0,15.557l-1.061,1.061a11,11,0,0,1-15.557,0L516.364,206.98a9,9,0,0,0-12.729,0L292.728,417.888A10.926,10.926,0,0,1,284.95,421.109Z" style="fill:#231f20"/><path d="M510,172.939a9.969,9.969,0,0,1,7.071,2.929L648.182,306.978a10,10,0,0,1,0,14.142l-1.061,1.061a10,10,0,0,1-14.142,0L517.071,206.274a10,10,0,0,0-14.142,0L292.021,417.181a10,10,0,0,1-14.142,0l-1.061-1.061a10,10,0,0,1,0-14.142l226.111-226.11A9.969,9.969,0,0,1,510,172.939m0-2a11.921,11.921,0,0,0-8.485,3.515L275.4,400.564a12.014,12.014,0,0,0,0,16.97l1.061,1.061a12,12,0,0,0,16.971,0L504.343,207.688a8,8,0,0,1,11.314,0L631.565,323.6a12,12,0,0,0,16.971,0l1.061-1.061a12,12,0,0,0,0-16.971L518.485,174.454A11.921,11.921,0,0,0,510,170.939Z" style="fill:#231f20"/><path d="M521.522,298.448c0,5.35-4.787,9.688-10.692,9.688s-10.692-4.337-10.692-9.688" style="fill:none;stroke:#231f20;stroke-linecap:round;stroke-linejoin:round;stroke-width:12px"/><circle cx="532" cy="284.659" r="7.795" style="fill:#231f20"/><circle cx="488" cy="284.659" r="7.795" style="fill:#231f20"/></svg>