<svg xmlns="http://www.w3.org/2000/svg" width="34" height="34">
  <path fill="#5F6364" d="M17 34c9.39 0 17-7.612 17-17 0-9.39-7.61-17-17-17S0 7.61 0 17c0 9.388 7.61 17 17 17"/>
  <path fill="#FFF" d="M22.215 8.5h-10.43C9.975 8.5 8.5 9.973 8.5 11.785v10.43c0 1.81 1.474 3.285 3.285 3.285h10.43c1.812 0 3.285-1.474 3.285-3.286v-10.43c0-1.81-1.474-3.284-3.285-3.284zm.942 1.96l.375-.002v2.882l-2.872.01-.01-2.883 2.507-.008zm-8.583 4.795C15.118 14.5 16 14.007 17 14.007c.998 0 1.882.494 2.425 1.248.355.492.568 1.093.568 1.745 0 1.65-1.344 2.992-2.993 2.992S14.008 18.65 14.008 17c0-.652.212-1.253.566-1.745zm9.27 6.96c0 .897-.73 1.628-1.63 1.628h-10.43c-.897 0-1.628-.73-1.628-1.63v-6.958h2.538c-.22.54-.343 1.128-.343 1.745 0 2.563 2.09 4.65 4.65 4.65s4.65-2.087 4.65-4.65c0-.617-.123-1.206-.342-1.745h2.538v6.96z"/>
</svg>
