<svg xmlns="http://www.w3.org/2000/svg" width="34" height="34">
  <path fill="#F1605C" d="M17 34c9.388 0 17-7.61 17-17 0-9.388-7.612-17-17-17C7.61 0 0 7.612 0 17c0 9.39 7.61 17 17 17"/>
  <path fill="#FFF" d="M17 8.5c-4.693 0-8.5 3.805-8.5 8.5 0 3.48 2.093 6.47 5.09 7.785-.025-.593-.006-1.306.146-1.952L14.83 18.2s-.272-.54-.272-1.343c0-1.26.73-2.2 1.64-2.2.773 0 1.147.58 1.147 1.275 0 .777-.496 1.94-.75 3.016-.214.902.45 1.638 1.34 1.638 1.61 0 2.694-2.068 2.694-4.52 0-1.86-1.256-3.256-3.537-3.256-2.58 0-4.185 1.922-4.185 4.07 0 .74.217 1.263.56 1.667.156.187.178.26.12.475-.04.155-.133.533-.172.683-.057.215-.23.292-.425.213-1.187-.486-1.74-1.786-1.74-3.248 0-2.414 2.036-5.31 6.074-5.31 3.245 0 5.38 2.348 5.38 4.87 0 3.334-1.853 5.825-4.586 5.825-.916 0-1.78-.496-2.075-1.06 0 0-.494 1.958-.598 2.337-.18.654-.533 1.31-.856 1.82.765.226 1.572.35 2.41.35 4.693 0 8.5-3.807 8.5-8.5 0-4.697-3.807-8.502-8.5-8.502"/>
</svg>
